<svg width="1071" height="187" viewBox="0 0 1071 187" fill="none" xmlns="http://www.w3.org/2000/svg">
<path d="M119.022 50.6459C123.672 50.6459 128.131 48.7988 131.419 45.5111C134.706 42.2233 136.553 37.7642 136.553 33.1146C136.553 28.4651 134.706 24.0059 131.419 20.7182C128.131 17.4304 123.672 15.5834 119.022 15.5834C114.373 15.5834 109.913 17.4304 106.626 20.7182C103.338 24.0059 101.491 28.4651 101.491 33.1146C101.491 37.7642 103.338 42.2233 106.626 45.5111C109.913 48.7988 114.373 50.6459 119.022 50.6459ZM83.8038 67.3278C78.9457 68.5356 75.6304 70.351 72.9539 72.6028C68.9412 75.9844 65.6999 80.862 61.321 88.529C60.2955 90.3232 58.5992 91.6366 56.6054 92.1801C54.6115 92.7237 52.4834 92.453 50.6892 91.4275C48.895 90.402 47.5816 88.7057 47.0381 86.7119C46.4945 84.7181 46.7652 82.59 47.7907 80.7957C52.1502 73.1716 56.5564 66.0383 62.9183 60.6854C69.5568 55.091 77.6835 51.9276 88.6424 50.7082C93.2239 50.2018 98.2652 50.303 102.991 52.4107C107.95 54.6274 111.573 58.5973 114.043 63.9034C117.37 71.0445 119.844 75.2948 121.823 77.7609C122.778 78.9413 123.444 79.4906 123.822 79.7361C124.122 79.9309 124.25 79.9465 124.297 79.9542C124.636 79.9932 125.739 79.9542 128.964 78.5245C130.371 77.9011 131.906 77.1531 133.783 76.2376L134.231 76.0195C136.528 74.8864 138.845 73.7954 141.182 72.747C143.068 71.9188 145.206 71.8715 147.127 72.6153C149.048 73.3591 150.596 74.8335 151.433 76.716C152.27 78.5985 152.328 80.7358 151.593 82.6605C150.858 84.5852 149.391 86.1405 147.512 86.9862C145.347 87.9577 143.2 88.9695 141.073 90.0211L140.562 90.2704C138.766 91.147 136.959 92.0313 135.264 92.7793C131.758 94.3299 127.277 96.0129 122.419 95.4246C117.292 94.8013 113.342 91.9067 110.089 88.0225L99.4417 108.565L114.168 127.725C115.046 128.869 115.589 130.233 115.738 131.668L118.979 162.819C119.103 163.845 119.021 164.886 118.738 165.88C118.455 166.874 117.978 167.802 117.333 168.61C116.688 169.418 115.889 170.09 114.982 170.586C114.075 171.082 113.078 171.392 112.05 171.499C111.022 171.606 109.983 171.508 108.993 171.209C108.003 170.91 107.083 170.418 106.285 169.76C105.488 169.102 104.829 168.292 104.348 167.378C103.867 166.463 103.572 165.461 103.482 164.432L100.466 135.474L91.5215 123.833L91.4435 123.977L91.1163 123.307L74.5902 101.802C73.7778 100.745 73.2502 99.4973 73.0578 98.1781C72.8655 96.859 73.0148 95.5125 73.4915 94.2675L83.8038 67.3278Z" fill="#84CC16"/>
<path d="M72.0082 113.006L66.2735 128.434L43.6777 126.642C42.6503 126.546 41.6143 126.656 40.6297 126.964C39.645 127.272 38.7314 127.773 37.9418 128.437C37.1522 129.101 36.5024 129.916 36.0301 130.833C35.5577 131.75 35.2722 132.752 35.1902 133.781C35.1082 134.809 35.2312 135.844 35.5522 136.824C35.8732 137.805 36.3857 138.712 37.06 139.493C37.7344 140.274 38.5571 140.913 39.4804 141.373C40.4038 141.834 41.4093 142.106 42.4388 142.175L70.9095 144.434C72.5992 144.569 74.2867 144.148 75.716 143.237C77.1453 142.326 78.2385 140.974 78.8298 139.385L83.2126 127.589L72.0082 113.006Z" fill="#84CC16"/>
<path d="M273 13.7801H297.235V118.5H273V13.7801ZM225.427 118.5H201.192V13.7801H225.427V118.5ZM274.795 75.5649H223.632V55.0697H274.795V75.5649ZM369.734 118.5V102.792L368.238 99.3513V71.2265C368.238 66.2398 366.692 62.3502 363.6 59.5577C360.608 56.7652 355.971 55.3689 349.688 55.3689C345.399 55.3689 341.16 56.067 336.972 57.4633C332.882 58.7598 329.392 60.555 326.499 62.8489L318.122 46.5425C322.51 43.4508 327.796 41.0572 333.979 39.3617C340.163 37.6662 346.446 36.8185 352.829 36.8185C365.096 36.8185 374.621 39.7108 381.403 45.4953C388.185 51.2798 391.576 60.3057 391.576 72.5729V118.5H369.734ZM345.2 119.697C338.916 119.697 333.531 118.65 329.043 116.555C324.555 114.361 321.114 111.419 318.72 107.729C316.327 104.039 315.13 99.8999 315.13 95.3121C315.13 90.5249 316.277 86.3361 318.571 82.7457C320.964 79.1553 324.704 76.3628 329.791 74.3681C334.877 72.2737 341.509 71.2265 349.688 71.2265H371.08V84.8401H352.231C346.745 84.8401 342.956 85.7377 340.861 87.5329C338.866 89.3281 337.869 91.5721 337.869 94.2649C337.869 97.2569 339.016 99.6505 341.31 101.446C343.704 103.141 346.945 103.989 351.034 103.989C354.924 103.989 358.414 103.091 361.506 101.296C364.598 99.4012 366.842 96.6585 368.238 93.0681L371.828 103.839C370.133 109.025 367.041 112.965 362.553 115.658C358.065 118.351 352.281 119.697 345.2 119.697ZM460.27 119.697C453.189 119.697 447.105 118.201 442.019 115.209C436.932 112.217 433.043 107.679 430.35 101.595C427.657 95.4119 426.311 87.6326 426.311 78.2577C426.311 68.783 427.707 61.0038 430.5 54.9201C433.392 48.8364 437.381 44.2985 442.468 41.3065C447.554 38.3145 453.488 36.8185 460.27 36.8185C467.85 36.8185 474.632 38.514 480.616 41.9049C486.699 45.2958 491.487 50.083 494.977 56.2665C498.568 62.45 500.363 69.7804 500.363 78.2577C500.363 86.6353 498.568 93.9159 494.977 100.099C491.487 106.283 486.699 111.12 480.616 114.611C474.632 118.001 467.85 119.697 460.27 119.697ZM412.697 118.5V7.4969H436.035V54.3217L434.539 78.1081L434.988 102.044V118.5H412.697ZM456.231 100.548C460.12 100.548 463.561 99.6505 466.553 97.8553C469.645 96.0601 472.088 93.5169 473.884 90.2257C475.779 86.8348 476.726 82.8454 476.726 78.2577C476.726 73.5702 475.779 69.5809 473.884 66.2897C472.088 62.9985 469.645 60.4553 466.553 58.6601C463.561 56.8649 460.12 55.9673 456.231 55.9673C452.341 55.9673 448.851 56.8649 445.759 58.6601C442.667 60.4553 440.224 62.9985 438.428 66.2897C436.633 69.5809 435.736 73.5702 435.736 78.2577C435.736 82.8454 436.633 86.8348 438.428 90.2257C440.224 93.5169 442.667 96.0601 445.759 97.8553C448.851 99.6505 452.341 100.548 456.231 100.548ZM515.985 118.5V38.0153H539.323V118.5H515.985ZM527.654 26.7953C523.366 26.7953 519.875 25.5486 517.182 23.0553C514.489 20.562 513.143 17.4702 513.143 13.7801C513.143 10.09 514.489 6.99823 517.182 4.5049C519.875 2.01156 523.366 0.764896 527.654 0.764896C531.943 0.764896 535.433 1.9617 538.126 4.3553C540.819 6.64917 542.165 9.64117 542.165 13.3313C542.165 17.2209 540.819 20.4622 538.126 23.0553C535.533 25.5486 532.043 26.7953 527.654 26.7953ZM593.894 119.697C584.42 119.697 577.039 117.303 571.754 112.516C566.468 107.629 563.825 100.399 563.825 90.8241V20.2129H587.162V90.5249C587.162 93.9159 588.06 96.5588 589.855 98.4537C591.65 100.249 594.094 101.147 597.186 101.147C600.876 101.147 604.017 100.149 606.61 98.1545L612.894 114.611C610.5 116.306 607.608 117.603 604.217 118.5C600.926 119.298 597.485 119.697 593.894 119.697ZM551.408 57.7625V39.8105H607.209V57.7625H551.408Z" fill="#18181B"/>
<path d="M627.64 118.5V13.7801H678.803C691.968 13.7801 701.841 16.2734 708.424 21.2601C715.106 26.2468 718.447 32.8292 718.447 41.0073C718.447 46.4926 717.1 51.2798 714.408 55.3689C711.715 59.3582 708.025 62.45 703.337 64.6441C698.65 66.8382 693.264 67.9353 687.18 67.9353L690.023 61.8017C696.605 61.8017 702.44 62.8988 707.526 65.0929C712.612 67.1873 716.552 70.3289 719.344 74.5177C722.237 78.7065 723.683 83.8428 723.683 89.9265C723.683 98.9025 720.142 105.934 713.061 111.02C705.98 116.007 695.558 118.5 681.795 118.5H627.64ZM651.725 100.249H680C686.283 100.249 691.02 99.2516 694.212 97.2569C697.503 95.1625 699.148 91.8713 699.148 87.3833C699.148 82.995 697.503 79.7537 694.212 77.6593C691.02 75.4652 686.283 74.3681 680 74.3681H649.93V56.7153H675.811C681.695 56.7153 686.183 55.718 689.275 53.7233C692.466 51.6289 694.062 48.4873 694.062 44.2985C694.062 40.2094 692.466 37.1676 689.275 35.1729C686.183 33.0785 681.695 32.0313 675.811 32.0313H651.725V100.249ZM778.683 119.697C770.106 119.697 762.476 117.902 755.794 114.311C749.212 110.721 743.976 105.834 740.086 99.6505C736.296 93.3673 734.401 86.2364 734.401 78.2577C734.401 70.1793 736.296 63.0484 740.086 56.8649C743.976 50.5817 749.212 45.6948 755.794 42.2041C762.476 38.6137 770.106 36.8185 778.683 36.8185C787.16 36.8185 794.74 38.6137 801.422 42.2041C808.104 45.6948 813.34 50.5318 817.13 56.7153C820.92 62.8988 822.815 70.0796 822.815 78.2577C822.815 86.2364 820.92 93.3673 817.13 99.6505C813.34 105.834 808.104 110.721 801.422 114.311C794.74 117.902 787.16 119.697 778.683 119.697ZM778.683 100.548C782.573 100.548 786.063 99.6505 789.155 97.8553C792.247 96.0601 794.69 93.5169 796.485 90.2257C798.281 86.8348 799.178 82.8454 799.178 78.2577C799.178 73.5702 798.281 69.5809 796.485 66.2897C794.69 62.9985 792.247 60.4553 789.155 58.6601C786.063 56.8649 782.573 55.9673 778.683 55.9673C774.793 55.9673 771.303 56.8649 768.211 58.6601C765.119 60.4553 762.626 62.9985 760.731 66.2897C758.936 69.5809 758.038 73.5702 758.038 78.2577C758.038 82.8454 758.936 86.8348 760.731 90.2257C762.626 93.5169 765.119 96.0601 768.211 97.8553C771.303 99.6505 774.793 100.548 778.683 100.548ZM876.712 119.697C868.135 119.697 860.505 117.902 853.823 114.311C847.241 110.721 842.005 105.834 838.115 99.6505C834.325 93.3673 832.43 86.2364 832.43 78.2577C832.43 70.1793 834.325 63.0484 838.115 56.8649C842.005 50.5817 847.241 45.6948 853.823 42.2041C860.505 38.6137 868.135 36.8185 876.712 36.8185C885.189 36.8185 892.769 38.6137 899.451 42.2041C906.133 45.6948 911.369 50.5318 915.159 56.7153C918.949 62.8988 920.844 70.0796 920.844 78.2577C920.844 86.2364 918.949 93.3673 915.159 99.6505C911.369 105.834 906.133 110.721 899.451 114.311C892.769 117.902 885.189 119.697 876.712 119.697ZM876.712 100.548C880.602 100.548 884.092 99.6505 887.184 97.8553C890.276 96.0601 892.719 93.5169 894.514 90.2257C896.31 86.8348 897.207 82.8454 897.207 78.2577C897.207 73.5702 896.31 69.5809 894.514 66.2897C892.719 62.9985 890.276 60.4553 887.184 58.6601C884.092 56.8649 880.602 55.9673 876.712 55.9673C872.822 55.9673 869.332 56.8649 866.24 58.6601C863.148 60.4553 860.655 62.9985 858.76 66.2897C856.965 69.5809 856.067 73.5702 856.067 78.2577C856.067 82.8454 856.965 86.8348 858.76 90.2257C860.655 93.5169 863.148 96.0601 866.24 97.8553C869.332 99.6505 872.822 100.548 876.712 100.548ZM963.521 119.697C956.639 119.697 950.007 118.899 943.624 117.303C937.341 115.608 932.354 113.513 928.664 111.02L936.443 94.2649C940.133 96.5588 944.472 98.4537 949.459 99.9497C954.545 101.346 959.532 102.044 964.419 102.044C969.804 102.044 973.594 101.396 975.788 100.099C978.082 98.8028 979.229 97.0076 979.229 94.7137C979.229 92.8188 978.331 91.4225 976.536 90.5249C974.841 89.5276 972.547 88.7796 969.655 88.2809C966.762 87.7822 963.571 87.2836 960.08 86.7849C956.689 86.2862 953.248 85.638 949.758 84.8401C946.267 83.9425 943.076 82.646 940.183 80.9505C937.291 79.255 934.947 76.9612 933.152 74.0689C931.457 71.1766 930.609 67.4366 930.609 62.8489C930.609 57.7625 932.055 53.2745 934.947 49.3849C937.939 45.4953 942.228 42.4534 947.813 40.2593C953.398 37.9654 960.08 36.8185 967.859 36.8185C973.345 36.8185 978.93 37.4169 984.615 38.6137C990.299 39.8105 995.037 41.5558 998.827 43.8497L991.047 60.4553C987.158 58.1614 983.218 56.6156 979.229 55.8177C975.339 54.9201 971.549 54.4713 967.859 54.4713C962.673 54.4713 958.883 55.1694 956.49 56.5657C954.096 57.962 952.899 59.7572 952.899 61.9513C952.899 63.946 953.747 65.442 955.443 66.4393C957.238 67.4366 959.581 68.2345 962.474 68.8329C965.366 69.4313 968.508 69.9798 971.899 70.4785C975.389 70.8774 978.88 71.5257 982.371 72.4233C985.861 73.3209 989.003 74.6174 991.795 76.3129C994.688 77.9086 997.031 80.1526 998.827 83.0449C1000.62 85.8374 1001.52 89.5276 1001.52 94.1153C1001.52 99.102 1000.02 103.54 997.031 107.43C994.039 111.22 989.701 114.212 984.016 116.406C978.431 118.6 971.599 119.697 963.521 119.697ZM1048.83 119.697C1039.36 119.697 1031.98 117.303 1026.69 112.516C1021.4 107.629 1018.76 100.399 1018.76 90.8241V20.2129H1042.1V90.5249C1042.1 93.9159 1043 96.5588 1044.79 98.4537C1046.59 100.249 1049.03 101.147 1052.12 101.147C1055.81 101.147 1058.95 100.149 1061.55 98.1545L1067.83 114.611C1065.44 116.306 1062.54 117.603 1059.15 118.5C1055.86 119.298 1052.42 119.697 1048.83 119.697ZM1006.34 57.7625V39.8105H1062.14V57.7625H1006.34Z" fill="#84CC16"/>
<path d="M455.8 166.5V133.775H469.123C472.614 133.775 475.668 134.476 478.286 135.879C480.936 137.25 482.993 139.167 484.457 141.629C485.922 144.091 486.655 146.927 486.655 150.138C486.655 153.348 485.922 156.184 484.457 158.646C482.993 161.108 480.936 163.041 478.286 164.443C475.668 165.814 472.614 166.5 469.123 166.5H455.8ZM459.259 163.508H468.936C471.835 163.508 474.344 162.947 476.463 161.825C478.614 160.672 480.281 159.098 481.465 157.103C482.65 155.078 483.242 152.756 483.242 150.138C483.242 147.488 482.65 145.167 481.465 143.172C480.281 141.177 478.614 139.619 476.463 138.497C474.344 137.344 471.835 136.767 468.936 136.767H459.259V163.508ZM504.147 166.734C501.592 166.734 499.348 166.204 497.415 165.144C495.483 164.054 493.971 162.573 492.88 160.703C491.79 158.802 491.244 156.636 491.244 154.205C491.244 151.774 491.758 149.623 492.787 147.753C493.847 145.883 495.28 144.419 497.088 143.359C498.927 142.268 500.984 141.723 503.259 141.723C505.565 141.723 507.607 142.252 509.383 143.312C511.191 144.341 512.609 145.805 513.637 147.707C514.666 149.577 515.18 151.743 515.18 154.205C515.18 154.361 515.165 154.532 515.133 154.719C515.133 154.875 515.133 155.046 515.133 155.233H493.769V152.756H513.357L512.048 153.737C512.048 151.961 511.658 150.387 510.879 149.016C510.131 147.613 509.103 146.522 507.794 145.743C506.485 144.964 504.973 144.574 503.259 144.574C501.576 144.574 500.064 144.964 498.724 145.743C497.384 146.522 496.34 147.613 495.592 149.016C494.844 150.418 494.47 152.023 494.47 153.831V154.345C494.47 156.215 494.875 157.867 495.685 159.301C496.527 160.703 497.68 161.81 499.145 162.62C500.641 163.399 502.34 163.789 504.241 163.789C505.737 163.789 507.124 163.524 508.401 162.994C509.71 162.464 510.832 161.654 511.767 160.563L513.637 162.713C512.547 164.022 511.175 165.02 509.523 165.705C507.903 166.391 506.111 166.734 504.147 166.734ZM495.498 138.123L501.529 132.326H504.895L510.926 138.123H507.84L501.903 133.167H504.521L498.584 138.123H495.498ZM544.316 166.734C542.228 166.734 540.405 166.344 538.847 165.565C537.288 164.786 536.073 163.617 535.2 162.059C534.359 160.501 533.938 158.553 533.938 156.215V141.956H537.257V155.841C537.257 158.459 537.896 160.438 539.174 161.778C540.483 163.087 542.306 163.742 544.644 163.742C546.358 163.742 547.838 163.399 549.085 162.713C550.363 161.997 551.329 160.968 551.983 159.628C552.669 158.288 553.012 156.683 553.012 154.813V141.956H556.331V166.5H553.152V159.768L553.666 160.984C552.887 162.791 551.672 164.209 550.02 165.238C548.399 166.235 546.498 166.734 544.316 166.734ZM596.25 141.723C598.244 141.723 599.974 142.112 601.439 142.891C602.935 143.639 604.088 144.793 604.899 146.351C605.74 147.909 606.161 149.873 606.161 152.241V166.5H602.842V152.569C602.842 149.982 602.218 148.034 600.972 146.725C599.756 145.385 598.026 144.715 595.782 144.715C594.099 144.715 592.634 145.073 591.388 145.79C590.172 146.476 589.222 147.488 588.536 148.829C587.882 150.138 587.554 151.727 587.554 153.597V166.5H584.235V152.569C584.235 149.982 583.612 148.034 582.365 146.725C581.118 145.385 579.373 144.715 577.129 144.715C575.477 144.715 574.028 145.073 572.781 145.79C571.535 146.476 570.568 147.488 569.883 148.829C569.228 150.138 568.901 151.727 568.901 153.597V166.5H565.582V141.956H568.761V148.595L568.247 147.426C568.995 145.65 570.194 144.263 571.846 143.265C573.529 142.237 575.508 141.723 577.784 141.723C580.183 141.723 582.225 142.33 583.908 143.546C585.591 144.73 586.682 146.522 587.18 148.922L585.871 148.408C586.588 146.413 587.85 144.808 589.658 143.593C591.497 142.346 593.694 141.723 596.25 141.723ZM640.067 166.734C637.916 166.734 635.984 166.251 634.27 165.285C632.556 164.287 631.2 162.854 630.203 160.984C629.205 159.114 628.707 156.854 628.707 154.205C628.707 151.525 629.205 149.265 630.203 147.426C631.231 145.556 632.603 144.138 634.317 143.172C636.031 142.206 637.948 141.723 640.067 141.723C642.404 141.723 644.493 142.252 646.331 143.312C648.201 144.341 649.666 145.79 650.726 147.66C651.786 149.53 652.315 151.712 652.315 154.205C652.315 156.667 651.786 158.849 650.726 160.75C649.666 162.62 648.201 164.085 646.331 165.144C644.493 166.204 642.404 166.734 640.067 166.734ZM627.398 166.5V131.812H630.717V149.203L630.249 154.158L630.577 159.114V166.5H627.398ZM639.833 163.789C641.579 163.789 643.137 163.399 644.508 162.62C645.88 161.81 646.97 160.688 647.781 159.254C648.591 157.789 648.996 156.106 648.996 154.205C648.996 152.273 648.591 150.59 647.781 149.156C646.97 147.722 645.88 146.616 644.508 145.837C643.137 145.026 641.579 144.621 639.833 144.621C638.088 144.621 636.514 145.026 635.111 145.837C633.74 146.616 632.649 147.722 631.839 149.156C631.06 150.59 630.67 152.273 630.67 154.205C630.67 156.106 631.06 157.789 631.839 159.254C632.649 160.688 633.74 161.81 635.111 162.62C636.514 163.399 638.088 163.789 639.833 163.789ZM669.086 166.734C666.718 166.734 664.583 166.204 662.682 165.144C660.812 164.054 659.331 162.573 658.24 160.703C657.149 158.802 656.604 156.636 656.604 154.205C656.604 151.743 657.149 149.577 658.24 147.707C659.331 145.837 660.812 144.372 662.682 143.312C664.552 142.252 666.686 141.723 669.086 141.723C671.517 141.723 673.668 142.252 675.538 143.312C677.439 144.372 678.919 145.837 679.979 147.707C681.07 149.577 681.615 151.743 681.615 154.205C681.615 156.636 681.07 158.802 679.979 160.703C678.919 162.573 677.439 164.054 675.538 165.144C673.637 166.204 671.486 166.734 669.086 166.734ZM669.086 163.789C670.863 163.789 672.437 163.399 673.808 162.62C675.179 161.81 676.255 160.688 677.034 159.254C677.844 157.789 678.249 156.106 678.249 154.205C678.249 152.273 677.844 150.59 677.034 149.156C676.255 147.722 675.179 146.616 673.808 145.837C672.437 145.026 670.878 144.621 669.133 144.621C667.388 144.621 665.829 145.026 664.458 145.837C663.087 146.616 661.996 147.722 661.186 149.156C660.375 150.59 659.97 152.273 659.97 154.205C659.97 156.106 660.375 157.789 661.186 159.254C661.996 160.688 663.087 161.81 664.458 162.62C665.829 163.399 667.372 163.789 669.086 163.789ZM698.396 166.734C696.028 166.734 693.893 166.204 691.992 165.144C690.122 164.054 688.641 162.573 687.55 160.703C686.46 158.802 685.914 156.636 685.914 154.205C685.914 151.743 686.46 149.577 687.55 147.707C688.641 145.837 690.122 144.372 691.992 143.312C693.862 142.252 695.997 141.723 698.396 141.723C700.827 141.723 702.978 142.252 704.848 143.312C706.749 144.372 708.229 145.837 709.289 147.707C710.38 149.577 710.925 151.743 710.925 154.205C710.925 156.636 710.38 158.802 709.289 160.703C708.229 162.573 706.749 164.054 704.848 165.144C702.947 166.204 700.796 166.734 698.396 166.734ZM698.396 163.789C700.173 163.789 701.747 163.399 703.118 162.62C704.489 161.81 705.565 160.688 706.344 159.254C707.154 157.789 707.559 156.106 707.559 154.205C707.559 152.273 707.154 150.59 706.344 149.156C705.565 147.722 704.489 146.616 703.118 145.837C701.747 145.026 700.188 144.621 698.443 144.621C696.698 144.621 695.139 145.026 693.768 145.837C692.397 146.616 691.306 147.722 690.496 149.156C689.685 150.59 689.28 152.273 689.28 154.205C689.28 156.106 689.685 157.789 690.496 159.254C691.306 160.688 692.397 161.81 693.768 162.62C695.139 163.399 696.682 163.789 698.396 163.789ZM724.294 166.734C722.268 166.734 720.351 166.453 718.543 165.892C716.736 165.3 715.318 164.568 714.289 163.695L715.785 161.077C716.783 161.825 718.06 162.48 719.619 163.041C721.177 163.57 722.813 163.835 724.527 163.835C726.865 163.835 728.548 163.477 729.576 162.76C730.605 162.012 731.119 161.03 731.119 159.815C731.119 158.911 730.823 158.21 730.231 157.711C729.67 157.181 728.922 156.792 727.987 156.542C727.052 156.262 726.008 156.028 724.855 155.841C723.702 155.654 722.548 155.436 721.395 155.187C720.273 154.937 719.245 154.579 718.31 154.111C717.375 153.613 716.611 152.943 716.019 152.101C715.458 151.26 715.177 150.138 715.177 148.735C715.177 147.395 715.551 146.195 716.299 145.135C717.047 144.076 718.138 143.25 719.572 142.658C721.037 142.034 722.813 141.723 724.901 141.723C726.491 141.723 728.08 141.941 729.67 142.377C731.259 142.782 732.568 143.328 733.597 144.013L732.148 146.678C731.057 145.93 729.888 145.4 728.641 145.089C727.395 144.746 726.148 144.574 724.901 144.574C722.689 144.574 721.052 144.964 719.993 145.743C718.964 146.491 718.45 147.457 718.45 148.642C718.45 149.577 718.73 150.309 719.291 150.839C719.884 151.369 720.647 151.789 721.582 152.101C722.548 152.382 723.592 152.615 724.714 152.802C725.868 152.989 727.005 153.223 728.127 153.504C729.28 153.753 730.324 154.111 731.259 154.579C732.226 155.015 732.989 155.654 733.55 156.496C734.142 157.306 734.438 158.381 734.438 159.721C734.438 161.155 734.033 162.402 733.223 163.461C732.444 164.49 731.291 165.3 729.763 165.892C728.267 166.453 726.444 166.734 724.294 166.734ZM748.29 166.734C745.983 166.734 744.207 166.111 742.96 164.864C741.713 163.617 741.09 161.856 741.09 159.581V136.533H744.409V159.394C744.409 160.828 744.768 161.934 745.485 162.713C746.233 163.493 747.292 163.882 748.664 163.882C750.128 163.882 751.344 163.461 752.31 162.62L753.479 165.004C752.824 165.596 752.03 166.033 751.095 166.313C750.191 166.594 749.256 166.734 748.29 166.734ZM736.696 144.715V141.956H751.889V144.715H736.696ZM784.286 141.723C786.28 141.723 788.026 142.112 789.522 142.891C791.049 143.639 792.233 144.793 793.075 146.351C793.947 147.909 794.384 149.873 794.384 152.241V166.5H791.064V152.569C791.064 149.982 790.41 148.034 789.101 146.725C787.823 145.385 786.015 144.715 783.678 144.715C781.933 144.715 780.405 145.073 779.096 145.79C777.819 146.476 776.821 147.488 776.104 148.829C775.419 150.138 775.076 151.727 775.076 153.597V166.5H771.757V141.956H774.936V148.688L774.421 147.426C775.201 145.65 776.447 144.263 778.161 143.265C779.876 142.237 781.917 141.723 784.286 141.723ZM818.73 166.5V161.077L818.59 160.189V151.119C818.59 149.031 817.998 147.426 816.813 146.304C815.66 145.182 813.93 144.621 811.624 144.621C810.035 144.621 808.523 144.886 807.089 145.416C805.656 145.946 804.44 146.647 803.443 147.52L801.947 145.042C803.194 143.982 804.69 143.172 806.435 142.611C808.18 142.019 810.019 141.723 811.951 141.723C815.13 141.723 817.577 142.517 819.291 144.107C821.036 145.665 821.909 148.049 821.909 151.26V166.5H818.73ZM810.268 166.734C808.43 166.734 806.824 166.438 805.453 165.846C804.113 165.222 803.084 164.381 802.368 163.321C801.651 162.23 801.292 160.984 801.292 159.581C801.292 158.303 801.588 157.15 802.181 156.122C802.804 155.062 803.801 154.22 805.173 153.597C806.575 152.943 808.445 152.615 810.783 152.615H819.244V155.093H810.876C808.507 155.093 806.856 155.514 805.921 156.355C805.017 157.197 804.565 158.241 804.565 159.488C804.565 160.89 805.11 162.012 806.201 162.854C807.292 163.695 808.819 164.116 810.783 164.116C812.653 164.116 814.258 163.695 815.598 162.854C816.969 161.981 817.967 160.734 818.59 159.114L819.338 161.404C818.715 163.025 817.624 164.318 816.065 165.285C814.538 166.251 812.606 166.734 810.268 166.734ZM849.752 166.734C847.726 166.734 845.809 166.453 844.001 165.892C842.194 165.3 840.776 164.568 839.747 163.695L841.243 161.077C842.241 161.825 843.518 162.48 845.077 163.041C846.635 163.57 848.271 163.835 849.985 163.835C852.323 163.835 854.006 163.477 855.034 162.76C856.063 162.012 856.577 161.03 856.577 159.815C856.577 158.911 856.281 158.21 855.689 157.711C855.128 157.181 854.38 156.792 853.445 156.542C852.51 156.262 851.466 156.028 850.313 155.841C849.16 155.654 848.006 155.436 846.853 155.187C845.731 154.937 844.703 154.579 843.768 154.111C842.833 153.613 842.069 152.943 841.477 152.101C840.916 151.26 840.635 150.138 840.635 148.735C840.635 147.395 841.009 146.195 841.757 145.135C842.505 144.076 843.596 143.25 845.03 142.658C846.495 142.034 848.271 141.723 850.359 141.723C851.949 141.723 853.538 141.941 855.128 142.377C856.717 142.782 858.026 143.328 859.055 144.013L857.606 146.678C856.515 145.93 855.346 145.4 854.099 145.089C852.853 144.746 851.606 144.574 850.359 144.574C848.147 144.574 846.51 144.964 845.451 145.743C844.422 146.491 843.908 147.457 843.908 148.642C843.908 149.577 844.188 150.309 844.749 150.839C845.342 151.369 846.105 151.789 847.04 152.101C848.006 152.382 849.05 152.615 850.172 152.802C851.326 152.989 852.463 153.223 853.585 153.504C854.738 153.753 855.782 154.111 856.717 154.579C857.684 155.015 858.447 155.654 859.008 156.496C859.6 157.306 859.896 158.381 859.896 159.721C859.896 161.155 859.491 162.402 858.681 163.461C857.902 164.49 856.749 165.3 855.221 165.892C853.725 166.453 851.902 166.734 849.752 166.734ZM876.132 166.734C874.044 166.734 872.22 166.344 870.662 165.565C869.104 164.786 867.888 163.617 867.016 162.059C866.174 160.501 865.753 158.553 865.753 156.215V141.956H869.073V155.841C869.073 158.459 869.712 160.438 870.989 161.778C872.298 163.087 874.122 163.742 876.459 163.742C878.173 163.742 879.654 163.399 880.9 162.713C882.178 161.997 883.144 160.968 883.799 159.628C884.485 158.288 884.827 156.683 884.827 154.813V141.956H888.147V166.5H884.968V159.768L885.482 160.984C884.703 162.791 883.487 164.209 881.835 165.238C880.215 166.235 878.314 166.734 876.132 166.734ZM912.778 166.5V161.077L912.638 160.189V151.119C912.638 149.031 912.046 147.426 910.861 146.304C909.708 145.182 907.978 144.621 905.672 144.621C904.083 144.621 902.571 144.886 901.137 145.416C899.704 145.946 898.488 146.647 897.491 147.52L895.995 145.042C897.241 143.982 898.737 143.172 900.483 142.611C902.228 142.019 904.067 141.723 905.999 141.723C909.178 141.723 911.625 142.517 913.339 144.107C915.084 145.665 915.957 148.049 915.957 151.26V166.5H912.778ZM904.316 166.734C902.477 166.734 900.872 166.438 899.501 165.846C898.161 165.222 897.132 164.381 896.416 163.321C895.699 162.23 895.34 160.984 895.34 159.581C895.34 158.303 895.636 157.15 896.229 156.122C896.852 155.062 897.849 154.22 899.221 153.597C900.623 152.943 902.493 152.615 904.831 152.615H913.292V155.093H904.924C902.555 155.093 900.904 155.514 899.969 156.355C899.065 157.197 898.613 158.241 898.613 159.488C898.613 160.89 899.158 162.012 900.249 162.854C901.34 163.695 902.867 164.116 904.831 164.116C906.701 164.116 908.306 163.695 909.646 162.854C911.017 161.981 912.014 160.734 912.638 159.114L913.386 161.404C912.762 163.025 911.672 164.318 910.113 165.285C908.586 166.251 906.654 166.734 904.316 166.734ZM937.208 166.5V141.956H940.387V148.642L940.06 147.473C940.745 145.603 941.898 144.185 943.519 143.219C945.14 142.221 947.15 141.723 949.55 141.723V144.948C949.425 144.948 949.3 144.948 949.176 144.948C949.051 144.917 948.926 144.902 948.802 144.902C946.215 144.902 944.189 145.696 942.724 147.286C941.259 148.844 940.527 151.073 940.527 153.971V166.5H937.208ZM965.383 166.734C963.014 166.734 960.879 166.204 958.978 165.144C957.108 164.054 955.628 162.573 954.537 160.703C953.446 158.802 952.9 156.636 952.9 154.205C952.9 151.743 953.446 149.577 954.537 147.707C955.628 145.837 957.108 144.372 958.978 143.312C960.848 142.252 962.983 141.723 965.383 141.723C967.814 141.723 969.964 142.252 971.834 143.312C973.735 144.372 975.216 145.837 976.275 147.707C977.366 149.577 977.912 151.743 977.912 154.205C977.912 156.636 977.366 158.802 976.275 160.703C975.216 162.573 973.735 164.054 971.834 165.144C969.933 166.204 967.783 166.734 965.383 166.734ZM965.383 163.789C967.159 163.789 968.733 163.399 970.104 162.62C971.476 161.81 972.551 160.688 973.33 159.254C974.141 157.789 974.546 156.106 974.546 154.205C974.546 152.273 974.141 150.59 973.33 149.156C972.551 147.722 971.476 146.616 970.104 145.837C968.733 145.026 967.175 144.621 965.429 144.621C963.684 144.621 962.126 145.026 960.754 145.837C959.383 146.616 958.292 147.722 957.482 149.156C956.672 150.59 956.266 152.273 956.266 154.205C956.266 156.106 956.672 157.789 957.482 159.254C958.292 160.688 959.383 161.81 960.754 162.62C962.126 163.399 963.669 163.789 965.383 163.789ZM992.449 166.734C990.142 166.734 988.366 166.111 987.119 164.864C985.873 163.617 985.249 161.856 985.249 159.581V136.533H988.569V159.394C988.569 160.828 988.927 161.934 989.644 162.713C990.392 163.493 991.451 163.882 992.823 163.882C994.288 163.882 995.503 163.461 996.469 162.62L997.638 165.004C996.984 165.596 996.189 166.033 995.254 166.313C994.35 166.594 993.415 166.734 992.449 166.734ZM980.855 144.715V141.956H996.049V144.715H980.855ZM1003.68 166.5V141.956H1007V166.5H1003.68ZM1005.36 136.533C1004.68 136.533 1004.1 136.3 1003.63 135.832C1003.17 135.365 1002.93 134.804 1002.93 134.149C1002.93 133.495 1003.17 132.949 1003.63 132.513C1004.1 132.045 1004.68 131.812 1005.36 131.812C1006.05 131.812 1006.63 132.03 1007.09 132.466C1007.56 132.902 1007.79 133.448 1007.79 134.102C1007.79 134.788 1007.56 135.365 1007.09 135.832C1006.66 136.3 1006.08 136.533 1005.36 136.533ZM1028.76 141.723C1030.76 141.723 1032.5 142.112 1034 142.891C1035.53 143.639 1036.71 144.793 1037.55 146.351C1038.43 147.909 1038.86 149.873 1038.86 152.241V166.5H1035.54V152.569C1035.54 149.982 1034.89 148.034 1033.58 146.725C1032.3 145.385 1030.49 144.715 1028.16 144.715C1026.41 144.715 1024.88 145.073 1023.58 145.79C1022.3 146.476 1021.3 147.488 1020.58 148.829C1019.9 150.138 1019.55 151.727 1019.55 153.597V166.5H1016.24V141.956H1019.41V148.688L1018.9 147.426C1019.68 145.65 1020.93 144.263 1022.64 143.265C1024.35 142.237 1026.4 141.723 1028.76 141.723ZM1063.21 166.5V161.077L1063.07 160.189V151.119C1063.07 149.031 1062.48 147.426 1061.29 146.304C1060.14 145.182 1058.41 144.621 1056.1 144.621C1054.51 144.621 1053 144.886 1051.57 145.416C1050.13 145.946 1048.92 146.647 1047.92 147.52L1046.43 145.042C1047.67 143.982 1049.17 143.172 1050.91 142.611C1052.66 142.019 1054.5 141.723 1056.43 141.723C1059.61 141.723 1062.06 142.517 1063.77 144.107C1065.52 145.665 1066.39 148.049 1066.39 151.26V166.5H1063.21ZM1054.75 166.734C1052.91 166.734 1051.3 166.438 1049.93 165.846C1048.59 165.222 1047.56 164.381 1046.85 163.321C1046.13 162.23 1045.77 160.984 1045.77 159.581C1045.77 158.303 1046.07 157.15 1046.66 156.122C1047.28 155.062 1048.28 154.22 1049.65 153.597C1051.05 152.943 1052.92 152.615 1055.26 152.615H1063.72V155.093H1055.35C1052.99 155.093 1051.33 155.514 1050.4 156.355C1049.5 157.197 1049.04 158.241 1049.04 159.488C1049.04 160.89 1049.59 162.012 1050.68 162.854C1051.77 163.695 1053.3 164.116 1055.26 164.116C1057.13 164.116 1058.74 163.695 1060.08 162.854C1061.45 161.981 1062.45 160.734 1063.07 159.114L1063.82 161.404C1063.19 163.025 1062.1 164.318 1060.54 165.285C1059.02 166.251 1057.08 166.734 1054.75 166.734Z" fill="#18181B"/>
</svg>
